Coordinates
version=1
nRows=16
nColumns=22
inDegrees=yes

Units are S.I. units (second, meters, Newtons, ...)
If the header above contains a line with 'inDegrees', this indicates whether rotational values are in degrees (yes) or radians (no).

endheader
time	pelvis_tilt	pelvis_list	pelvis_rotation	pelvis_tx	pelvis_ty	pelvis_tz	hip_flexion_r	hip_adduction_r	hip_rotation_r	knee_angle_r	ankle_angle_r	subtalar_angle_r	hip_flexion_l	hip_adduction_l	hip_rotation_l	knee_angle_l	ankle_angle_l	subtalar_angle_l	lumbar_extension	lumbar_bending	lumbar_rotation
      0.01000000	      4.94043195	     -3.03413300	      4.53088250	     -1.46703051	      0.95561856	      0.09394817	     -5.35937761	      4.24834288	     -6.78145165	     -6.76629220	      7.51754513	      0.39162137	     -1.13383379	     -3.57761462	    -10.81980534	    -15.77559101	     19.70136946	     -8.53285631	    -12.29652074	      5.08385178	     -8.47013559
      0.02000000	      4.95657574	     -3.04138674	      4.55476852	     -1.46698606	      0.95564133	      0.09390972	     -5.39791518	      4.26185393	     -6.78257614	     -6.73000550	      7.54071242	      0.39739772	     -1.15579713	     -3.58689089	    -10.79855025	    -15.76587680	     19.68573029	     -8.54298977	    -12.29651718	      5.08462169	     -8.53014197
      0.03000000	      4.96138001	     -3.04564248	      4.55628477	     -1.46696361	      0.95564566	      0.09391264	     -5.40193473	      4.26687848	     -6.78386458	     -6.73356669	      7.54011570	      0.39815508	     -1.16196028	     -3.59277826	    -10.79507799	    -15.76827624	     19.68633658	     -8.54339539	    -12.28851770	      5.06817560	     -8.53364457
      0.04000000	      4.97294584	     -3.03918178	      4.57835569	     -1.46691712	      0.95565818	      0.09387136	     -5.42220489	      4.26197200	     -6.81436264	     -6.72647123	      7.54067053	      0.40907881	     -1.18098982	     -3.58516481	    -10.77148033	    -15.75827127	     19.70246622	     -8.54343285	    -12.28143924	      5.04398596	     -8.59384353
      0.05000000	      4.97732339	     -3.04540419	      4.58179332	     -1.46688774	      0.95565956	      0.09388005	     -5.42589588	      4.27093873	     -6.81573751	     -6.73087233	      7.54079393	      0.40980708	     -1.18681804	     -3.59389674	    -10.76755376	    -15.76065594	     19.70226880	     -8.54366850	    -12.27199572	      5.02290262	     -8.59664338
      0.06000000	      4.98154655	     -3.05195923	      4.58550328	     -1.46684890	      0.95565748	      0.09388806	     -5.43021040	      4.28009363	     -6.81755335	     -6.73532716	      7.54108401	      0.41032972	     -1.19308258	     -3.60291892	    -10.76366865	    -15.76292389	     19.70301829	     -8.54352673	    -12.26098821	      5.00064208	     -8.60267452
      0.07000000	      4.98623356	     -3.05366824	      4.61981393	     -1.46678534	      0.95565085	      0.09384309	     -5.44764928	      4.28643721	     -6.86507217	     -6.72265661	      7.55081576	      0.41269594	     -1.19747956	     -3.60619368	    -10.72589903	    -15.76226205	     19.72576368	     -8.53346927	    -12.24309236	      4.97960076	     -8.67695029
      0.08000000	      4.98992016	     -3.06165472	      4.62245055	     -1.46674156	      0.95564713	      0.09386501	     -5.45076231	      4.29794389	     -6.86709899	     -6.72790438	      7.55080257	      0.41263962	     -1.20268414	     -3.61741055	    -10.72219306	    -15.76543270	     19.72549664	     -8.53345073	    -12.23398440	      4.95397845	     -8.67850130
      0.09000000	      4.99332796	     -3.07001829	      4.62296428	     -1.46669147	      0.95564403	      0.09389170	     -5.45491060	      4.30898452	     -6.87110454	     -6.73240494	      7.55118503	      0.41235831	     -1.20757253	     -3.62951864	    -10.71911941	    -15.76856195	     19.72602833	     -8.53328730	    -12.22376514	      4.92840362	     -8.68215111
      0.10000000	      4.99472299	     -3.08269241	      4.64237805	     -1.46661580	      0.95563041	      0.09388992	     -5.46265373	      4.32579816	     -6.94333245	     -6.72715062	      7.56220023	      0.40432823	     -1.20404149	     -3.64922933	    -10.71800007	    -15.78066055	     19.74728351	     -8.52496863	    -12.20308860	      4.91204816	     -8.71282924
      0.11000000	      4.99790994	     -3.09136053	      4.63896135	     -1.46657077	      0.95562661	      0.09393528	     -5.46482567	      4.33732121	     -6.94638058	     -6.73255122	      7.56237736	      0.40384358	     -1.20846927	     -3.66209806	    -10.71424617	    -15.78481907	     19.74764484	     -8.52461020	    -12.19483085	      4.88565395	     -8.71649634
      0.12000000	      4.99549822	     -3.10866720	      4.64585796	     -1.46651259	      0.95560619	      0.09396448	     -5.45616198	      4.35673602	     -7.02025028	     -6.74649277	      7.57097167	      0.39298641	     -1.19837800	     -3.68737997	    -10.72115693	    -15.80304932	     19.77017888	     -8.51097714	    -12.17389122	      4.87239582	     -8.72546171
      0.13000000	      4.99826589	     -3.11706823	      4.63989760	     -1.46647253	      0.95560124	      0.09402011	     -5.45781003	      4.36792530	     -7.02390825	     -6.75102045	      7.57116270	      0.39250694	     -1.20246537	     -3.70025980	    -10.71791732	    -15.80720325	     19.77085232	     -8.51017501	    -12.16452656	      4.84674760	     -8.72910702
      0.14000000	      4.98162780	     -3.13860885	      4.64856557	     -1.46644457	      0.95554848	      0.09405727	     -5.41750034	      4.38952958	     -7.11176521	     -6.79225026	      7.57750048	      0.37464821	     -1.16509663	     -3.73218496	    -10.72802393	    -15.84439155	     19.81298499	     -8.47071204	    -12.12974078	      4.83853848	     -8.74026146
      0.15000000	      4.98393691	     -3.14662367	      4.64180590	     -1.46640174	      0.95554141	      0.09411351	     -5.42006105	      4.40038758	     -7.11589026	     -6.79412074	      7.57783982	      0.37437925	     -1.16987484	     -3.74455583	    -10.72562505	    -15.84753615	     19.81308521	     -8.46997361	    -12.11736522	      4.81428351	     -8.74180926
      0.16000000	      4.97616097	     -3.16021812	      4.64320450	     -1.46633719	      0.95551560	      0.09416064	     -5.41392383	      4.41745885	     -7.15654679	     -6.79211090	      7.57788755	      0.37065129	     -1.16582255	     -3.76454857	    -10.73967027	    -15.84396867	     19.82681268	     -8.46042410	    -12.08763259	      4.79485239	     -8.72768977
